<?xml version="1.0" encoding="utf-8"?>
<!-- Generator: Adobe Illustrator 25.1.0, SVG Export Plug-In . SVG Version: 6.00 Build 0)  -->
<svg version="1.1" id="Warstwa_1" xmlns="http://www.w3.org/2000/svg" xmlns:xlink="http://www.w3.org/1999/xlink" x="0px" y="0px"
	 viewBox="0 0 1000 247.62" style="enable-background:new 0 0 1000 247.62;" xml:space="preserve">
<style type="text/css">
	.st0{fill:#9B4035;}
</style>
<g>
	<g>
		<polygon class="st0" points="161.53,191.02 131.45,222.48 131.45,25.14 161.53,25.14 		"/>
		<polygon class="st0" points="102.83,193.85 72.75,163.8 72.75,25.14 102.83,25.14 		"/>
		<polygon class="st0" points="46.34,25.14 46.34,137.39 16.26,107.32 16.26,25.14 		"/>
	</g>
	<g>
		<path d="M273.27,117.44v16.04h-64.28v-12.76l32.81-30.99c3.48-3.32,5.83-6.18,7.05-8.57c1.21-2.39,1.82-4.76,1.82-7.11
			c0-3.4-1.16-6.01-3.46-7.84c-2.31-1.82-5.69-2.73-10.15-2.73c-3.73,0-7.09,0.71-10.09,2.13c-3,1.42-5.51,3.55-7.53,6.38
			l-14.34-9.23c3.32-4.94,7.9-8.81,13.73-11.6s12.52-4.19,20.05-4.19c6.32,0,11.85,1.03,16.59,3.1c4.74,2.07,8.42,4.98,11.06,8.75
			c2.63,3.77,3.95,8.2,3.95,13.31c0,4.62-0.97,8.95-2.92,13c-1.94,4.05-5.71,8.67-11.3,13.85l-19.56,18.47H273.27z"/>
		<path d="M373.27,133.48l-0.12-51.04l-25.03,42.04h-8.87l-24.91-40.95v49.94h-18.47V48.42h16.28l31.83,52.86l31.35-52.86h16.16
			l0.24,85.06H373.27z"/>
		<path d="M472.97,132.2c-6.28-1.82-11.32-4.19-15.13-7.11l6.68-14.82c3.65,2.67,7.98,4.82,13,6.44c5.02,1.62,10.04,2.43,15.07,2.43
			c5.59,0,9.72-0.83,12.39-2.49c2.67-1.66,4.01-3.87,4.01-6.62c0-2.02-0.79-3.71-2.37-5.04c-1.58-1.34-3.61-2.41-6.08-3.22
			c-2.47-0.81-5.81-1.7-10.02-2.67c-6.48-1.54-11.79-3.08-15.92-4.62c-4.13-1.54-7.67-4.01-10.63-7.41
			c-2.96-3.4-4.43-7.94-4.43-13.61c0-4.94,1.34-9.42,4.01-13.43c2.67-4.01,6.7-7.19,12.09-9.54c5.38-2.35,11.97-3.52,19.74-3.52
			c5.43,0,10.73,0.65,15.92,1.94c5.18,1.3,9.72,3.16,13.61,5.59l-6.07,14.95c-7.86-4.45-15.72-6.68-23.57-6.68
			c-5.51,0-9.58,0.89-12.21,2.67c-2.63,1.78-3.95,4.13-3.95,7.05c0,2.92,1.52,5.08,4.56,6.5c3.04,1.42,7.67,2.82,13.91,4.19
			c6.48,1.54,11.79,3.08,15.92,4.62c4.13,1.54,7.67,3.97,10.63,7.29c2.96,3.32,4.43,7.82,4.43,13.49c0,4.86-1.36,9.3-4.07,13.3
			c-2.72,4.01-6.79,7.19-12.21,9.54c-5.43,2.35-12.03,3.52-19.81,3.52C485.75,134.94,479.25,134.02,472.97,132.2z"/>
		<path d="M567.57,64.46h-27.22V48.42h74.12v16.04h-27.22v69.02h-19.69V64.46z"/>
		<path d="M642.12,124.85c-6.77-6.72-10.15-16.32-10.15-28.8V48.42h19.68v46.9c0,15.23,6.32,22.84,18.96,22.84
			c6.16,0,10.86-1.84,14.1-5.53c3.24-3.68,4.86-9.46,4.86-17.32v-46.9h19.44v47.63c0,12.48-3.38,22.08-10.15,28.8
			c-6.76,6.72-16.22,10.09-28.37,10.09C658.34,134.94,648.88,131.57,642.12,124.85z"/>
		<path d="M737.56,48.42h38.64c9.24,0,17.39,1.76,24.49,5.29c7.09,3.52,12.59,8.49,16.52,14.89c3.93,6.4,5.89,13.85,5.89,22.36
			s-1.96,15.96-5.89,22.36c-3.93,6.4-9.44,11.36-16.52,14.89c-7.09,3.52-15.25,5.29-24.49,5.29h-38.64V48.42z M775.23,117.32
			c8.51,0,15.29-2.37,20.36-7.11c5.06-4.74,7.59-11.16,7.59-19.26c0-8.1-2.53-14.52-7.59-19.26c-5.07-4.74-11.85-7.11-20.36-7.11
			h-17.98v52.74H775.23z"/>
		<path d="M847.04,48.42h19.69v85.06h-19.69V48.42z"/>
		<path d="M913.33,129.22c-7.09-3.81-12.64-9.05-16.65-15.74c-4.01-6.68-6.02-14.2-6.02-22.54c0-8.34,2.01-15.86,6.02-22.54
			c4.01-6.68,9.56-11.93,16.65-15.74c7.09-3.81,15.05-5.71,23.88-5.71s16.77,1.9,23.82,5.71c7.05,3.81,12.59,9.05,16.65,15.74
			c4.05,6.68,6.07,14.2,6.07,22.54c0,8.34-2.03,15.86-6.07,22.54c-4.05,6.68-9.6,11.93-16.65,15.74
			c-7.05,3.81-14.99,5.71-23.82,5.71S920.41,133.03,913.33,129.22z M950.81,114.7c4.05-2.31,7.23-5.53,9.54-9.66
			c2.31-4.13,3.46-8.83,3.46-14.1c0-5.26-1.15-9.96-3.46-14.1c-2.31-4.13-5.49-7.35-9.54-9.66c-4.05-2.31-8.59-3.46-13.61-3.46
			c-5.02,0-9.56,1.15-13.61,3.46c-4.05,2.31-7.23,5.53-9.54,9.66c-2.31,4.13-3.46,8.83-3.46,14.1c0,5.27,1.15,9.96,3.46,14.1
			c2.31,4.13,5.49,7.35,9.54,9.66c4.05,2.31,8.59,3.46,13.61,3.46C942.22,118.17,946.76,117.01,950.81,114.7z"/>
	</g>
	<g>
		<path d="M220.03,162.94c1.6,1.35,2.4,3.2,2.4,5.56s-0.8,4.21-2.4,5.55c-1.6,1.34-3.82,2.01-6.64,2.01h-5.94v6.99h-2.34v-22.13
			h8.28C216.21,160.91,218.42,161.59,220.03,162.94z M218.35,172.56c1.16-0.96,1.74-2.31,1.74-4.06c0-1.79-0.58-3.17-1.74-4.13
			c-1.16-0.96-2.84-1.44-5.03-1.44h-5.88V174h5.88C215.52,174,217.19,173.52,218.35,172.56z"/>
		<path d="M259.99,183.05l-5.06-7.11c-0.57,0.06-1.16,0.1-1.77,0.1h-5.94v7.02h-2.34v-22.13h8.28c2.83,0,5.04,0.67,6.64,2.02
			c1.6,1.35,2.4,3.2,2.4,5.56c0,1.73-0.44,3.19-1.31,4.38s-2.13,2.05-3.75,2.58l5.41,7.59H259.99z M258.13,172.58
			c1.16-0.97,1.74-2.33,1.74-4.08c0-1.79-0.58-3.17-1.74-4.13c-1.16-0.96-2.84-1.44-5.03-1.44h-5.88v11.1h5.88
			C255.29,174.04,256.97,173.55,258.13,172.58z"/>
		<path d="M299.01,177.13h-12.33l-2.66,5.91h-2.43l10.12-22.13h2.31l10.12,22.13h-2.47L299.01,177.13z M298.15,175.24l-5.31-11.89
			l-5.31,11.89H298.15z"/>
		<path d="M328.56,181.78c-1.76-0.97-3.14-2.31-4.14-4.03c-1-1.72-1.5-3.64-1.5-5.77c0-2.13,0.5-4.05,1.5-5.77
			c1-1.72,2.39-3.06,4.16-4.03c1.77-0.97,3.75-1.46,5.94-1.46c1.64,0,3.16,0.27,4.55,0.82c1.39,0.55,2.57,1.35,3.54,2.4l-1.48,1.49
			c-1.73-1.75-3.91-2.62-6.55-2.62c-1.75,0-3.34,0.4-4.77,1.2c-1.43,0.8-2.56,1.9-3.37,3.29c-0.81,1.39-1.22,2.95-1.22,4.68
			c0,1.73,0.41,3.29,1.22,4.68c0.81,1.39,1.93,2.49,3.37,3.29c1.43,0.8,3.02,1.2,4.77,1.2c2.66,0,4.84-0.89,6.55-2.66l1.48,1.49
			c-0.97,1.05-2.15,1.86-3.56,2.42c-1.4,0.56-2.93,0.84-4.57,0.84C332.29,183.24,330.32,182.75,328.56,181.78z"/>
		<path d="M368.24,181.77c-1.78-0.98-3.17-2.32-4.17-4.03c-1-1.71-1.5-3.63-1.5-5.75c0-2.13,0.5-4.05,1.5-5.75
			c1-1.71,2.39-3.05,4.17-4.03c1.78-0.98,3.77-1.47,5.96-1.47c2.19,0,4.17,0.49,5.93,1.46c1.76,0.97,3.15,2.31,4.16,4.03
			c1.01,1.72,1.52,3.64,1.52,5.77c0,2.13-0.51,4.05-1.52,5.77c-1.01,1.72-2.4,3.06-4.16,4.03c-1.76,0.97-3.74,1.45-5.93,1.45
			C372.01,183.24,370.02,182.75,368.24,181.77z M378.94,179.96c1.41-0.79,2.52-1.89,3.32-3.29c0.8-1.4,1.2-2.97,1.2-4.7
			c0-1.73-0.4-3.29-1.2-4.69c-0.8-1.4-1.91-2.5-3.32-3.29c-1.41-0.79-2.99-1.19-4.74-1.19c-1.75,0-3.33,0.4-4.76,1.19
			c-1.42,0.79-2.54,1.89-3.35,3.29c-0.81,1.4-1.22,2.97-1.22,4.69c0,1.73,0.41,3.29,1.22,4.7c0.81,1.4,1.93,2.5,3.35,3.29
			c1.42,0.79,3.01,1.18,4.76,1.18C375.95,181.15,377.53,180.75,378.94,179.96z"/>
		<path d="M438.16,160.91l-7.46,22.13h-2.47l-6.48-18.88l-6.51,18.88h-2.43l-7.46-22.13h2.4l6.39,19.03l6.61-19.03h2.18l6.51,19.13
			l6.48-19.13H438.16z"/>
		<path d="M478.32,160.91v22.13h-1.93l-14.23-17.96v17.96h-2.34v-22.13h1.93l14.26,17.96v-17.96H478.32z"/>
		<path d="M502.92,160.91h2.34v22.13h-2.34V160.91z"/>
		<path d="M543.73,177.13H531.4l-2.66,5.91h-2.43l10.12-22.13h2.31l10.12,22.13h-2.47L543.73,177.13z M542.88,175.24l-5.31-11.89
			l-5.31,11.89H542.88z"/>
		<path d="M610.51,162.94c1.6,1.35,2.4,3.2,2.4,5.56s-0.8,4.21-2.4,5.55c-1.6,1.34-3.82,2.01-6.64,2.01h-5.94v6.99h-2.34v-22.13
			h8.28C606.7,160.91,608.91,161.59,610.51,162.94z M608.84,172.56c1.16-0.96,1.74-2.31,1.74-4.06c0-1.79-0.58-3.17-1.74-4.13
			c-1.16-0.96-2.84-1.44-5.03-1.44h-5.88V174h5.88C606,174,607.68,173.52,608.84,172.56z"/>
		<path d="M650.48,183.05l-5.06-7.11c-0.57,0.06-1.16,0.1-1.77,0.1h-5.94v7.02h-2.34v-22.13h8.28c2.83,0,5.04,0.67,6.64,2.02
			c1.6,1.35,2.4,3.2,2.4,5.56c0,1.73-0.44,3.19-1.31,4.38c-0.87,1.19-2.13,2.05-3.75,2.58l5.41,7.59H650.48z M648.62,172.58
			c1.16-0.97,1.74-2.33,1.74-4.08c0-1.79-0.58-3.17-1.74-4.13c-1.16-0.96-2.84-1.44-5.03-1.44h-5.88v11.1h5.88
			C645.78,174.04,647.45,173.55,648.62,172.58z"/>
		<path d="M679.33,181.77c-1.78-0.98-3.17-2.32-4.17-4.03c-1-1.71-1.5-3.63-1.5-5.75c0-2.13,0.5-4.05,1.5-5.75
			c1-1.71,2.39-3.05,4.17-4.03c1.78-0.98,3.77-1.47,5.96-1.47c2.19,0,4.17,0.49,5.93,1.46c1.76,0.97,3.15,2.31,4.16,4.03
			c1.01,1.72,1.52,3.64,1.52,5.77c0,2.13-0.51,4.05-1.52,5.77c-1.01,1.72-2.4,3.06-4.16,4.03c-1.76,0.97-3.74,1.45-5.93,1.45
			C683.1,183.24,681.11,182.75,679.33,181.77z M690.04,179.96c1.41-0.79,2.52-1.89,3.32-3.29c0.8-1.4,1.2-2.97,1.2-4.7
			c0-1.73-0.4-3.29-1.2-4.69c-0.8-1.4-1.91-2.5-3.32-3.29c-1.41-0.79-2.99-1.19-4.74-1.19c-1.75,0-3.33,0.4-4.76,1.19
			c-1.42,0.79-2.54,1.89-3.35,3.29s-1.22,2.97-1.22,4.69c0,1.73,0.41,3.29,1.22,4.7c0.81,1.4,1.93,2.5,3.35,3.29
			c1.42,0.79,3.01,1.18,4.76,1.18C687.04,181.15,688.62,180.75,690.04,179.96z"/>
		<path d="M717.92,182.41c-1.07-0.55-1.95-1.33-2.62-2.34l1.39-1.58c1.22,1.81,2.82,2.72,4.78,2.72c2.74,0,4.11-1.62,4.11-4.87
			v-13.41h-8.1v-2.02h10.4v15.33c0,2.32-0.54,4.06-1.63,5.23c-1.09,1.17-2.69,1.75-4.82,1.75
			C720.17,183.24,719,182.96,717.92,182.41z"/>
		<path d="M767.94,181.02v2.02h-15.65v-22.13h15.18v2.02h-12.84v7.87h11.45v1.99h-11.45v8.22H767.94z"/>
		<path d="M797.7,172.64l-4.52,4.59v5.82h-2.34v-22.13h2.34v13.37l13-13.37h2.69l-9.58,10.02l10.24,12.11h-2.78L797.7,172.64z"/>
		<path d="M833.74,162.94h-7.78v-2.02h17.9v2.02h-7.78v20.11h-2.34V162.94z"/>
		<path d="M868.38,181.77c-1.78-0.98-3.17-2.32-4.17-4.03c-1-1.71-1.5-3.63-1.5-5.75c0-2.13,0.5-4.05,1.5-5.75
			c1-1.71,2.39-3.05,4.17-4.03c1.78-0.98,3.77-1.47,5.96-1.47s4.17,0.49,5.93,1.46c1.76,0.97,3.15,2.31,4.16,4.03
			c1.01,1.72,1.52,3.64,1.52,5.77c0,2.13-0.51,4.05-1.52,5.77c-1.01,1.72-2.4,3.06-4.16,4.03c-1.76,0.97-3.74,1.45-5.93,1.45
			S870.16,182.75,868.38,181.77z M879.08,179.96c1.41-0.79,2.52-1.89,3.32-3.29c0.8-1.4,1.2-2.97,1.2-4.7c0-1.73-0.4-3.29-1.2-4.69
			c-0.8-1.4-1.91-2.5-3.32-3.29c-1.41-0.79-2.99-1.19-4.74-1.19s-3.33,0.4-4.76,1.19c-1.42,0.79-2.54,1.89-3.35,3.29
			s-1.22,2.97-1.22,4.69c0,1.73,0.41,3.29,1.22,4.7c0.81,1.4,1.93,2.5,3.35,3.29c1.42,0.79,3.01,1.18,4.76,1.18
			S877.67,180.75,879.08,179.96z"/>
		<path d="M938.3,160.91l-7.46,22.13h-2.47l-6.48-18.88l-6.51,18.88h-2.43l-7.46-22.13h2.4l6.39,19.03l6.61-19.03h2.18l6.51,19.13
			l6.48-19.13H938.3z"/>
		<path d="M973.18,177.13h-12.33l-2.66,5.91h-2.43l10.12-22.13h2.31l10.12,22.13h-2.47L973.18,177.13z M972.32,175.24l-5.31-11.89
			l-5.31,11.89H972.32z"/>
	</g>
</g>
</svg>
